<svg xmlns="http://www.w3.org/2000/svg" width="39.59mm" height="33.45mm" viewBox="0 0 112.22 94.81"><defs><style>.a{fill:#fff;stroke:#02464b;}.b{fill:#02464b;}</style></defs><title>chat</title><path class="a" d="M101.55,66.79c6.4-6.85,10.17-15.2,10.17-24.23C111.72,19.33,86.82.5,56.11.5S.5,19.33.5,42.56,25.4,84.62,56.11,84.62a71.7,71.7,0,0,0,19.8-2.75L107.45,94Z"/><path class="b" d="M25.89,47.33A7.43,7.43,0,0,1,22.84,44a11.84,11.84,0,0,1-1-5.21V31.76h6.42v6.53a3.79,3.79,0,0,0,1,2.83,4,4,0,0,0,2.87,1A3.75,3.75,0,0,0,35,41a4.55,4.55,0,0,0,1-3.16V36.07h2.67V37.9q0,5.22-1.9,7.89c-1.27,1.79-3.3,2.68-6.12,2.68A9.56,9.56,0,0,1,25.89,47.33ZM36.05,31.76h6.42V56.08H36.05Z"/><path class="b" d="M49.79,54.57q-1.93-1.86-1.93-5.66A6.62,6.62,0,0,1,50,43.5q2.16-1.81,6.5-1.81h6.1l.32,4.9h-6.4a3.41,3.41,0,0,0-2.17.58,2.06,2.06,0,0,0-.73,1.74,1.93,1.93,0,0,0,.91,1.77,5.32,5.32,0,0,0,2.77.58,9.5,9.5,0,0,0,3.83-.59,1.91,1.91,0,0,0,1.25-1.83l.5,3.54a3.35,3.35,0,0,1-1.21,2.23A7,7,0,0,1,59,56a12.5,12.5,0,0,1-3.39.45Q51.73,56.43,49.79,54.57ZM62.41,40.66a3.16,3.16,0,0,0-1.12-2.6,4.93,4.93,0,0,0-3.19-.91,8.37,8.37,0,0,0-2.69.44A8.1,8.1,0,0,0,53,38.83l-4-3.91a9.59,9.59,0,0,1,3.85-2.59,14.49,14.49,0,0,1,5.3-.93,12.61,12.61,0,0,1,5.43,1.07,7.67,7.67,0,0,1,3.44,3.09,9.55,9.55,0,0,1,1.18,4.89V56.08H62.41Z"/><path class="b" d="M71.77,31.76H91.59v6.18H71.77Zm6.7,2.55h6.42V56.08H78.47Z"/></svg>